<svg xmlns="http://www.w3.org/2000/svg" height="512pt" version="1.1" viewBox="-33 0 512 512.00015" width="512pt">
<g id="surface1">
<path d="M 423.699219 47.554688 L 366.097656 14.296875 L 366.035156 14.378906 C 355.011719 8.734375 341.3125 8.246094 329.058594 15.320312 L 58.097656 171.460938 C 22.148438 192.214844 0 230.578125 0 272.089844 L 0 439.804688 C 0 456.070312 9.617188 468.996094 22.542969 474.972656 L 74.457031 504.808594 C 86.097656 513.019531 102.101562 514.890625 116.195312 506.753906 L 387.15625 350.613281 C 423.105469 329.855469 445.253906 291.496094 445.253906 249.984375 L 445.253906 82.269531 C 445.253906 66.414062 436.128906 53.722656 423.699219 47.554688 Z M 423.699219 47.554688 " style=" stroke:none;fill-rule:nonzero;fill:rgb(35.686275%,19.607843%,7.058824%);fill-opacity:1;" />
<path d="M 116.195312 204.867188 L 387.15625 48.726562 C 412.976562 33.820312 445.253906 52.453125 445.253906 82.269531 L 445.253906 249.984375 C 445.253906 291.496094 423.105469 329.855469 387.15625 350.613281 L 116.195312 506.753906 C 90.375 521.660156 58.097656 503.027344 58.097656 473.210938 L 58.097656 305.496094 C 58.097656 263.984375 80.246094 225.625 116.195312 204.867188 Z M 116.195312 204.867188 " style=" stroke:none;fill-rule:nonzero;fill:rgb(65.490196%,39.607843%,19.215686%);fill-opacity:1;" />
<path d="M 387.15625 48.726562 L 116.195312 204.867188 C 80.257812 225.617188 58.113281 263.957031 58.097656 305.453125 C 94.082031 326.226562 138.414062 326.226562 174.394531 305.453125 L 356.511719 200.304688 C 400.917969 174.667969 432.960938 132.046875 445.253906 82.269531 C 445.253906 52.453125 412.976562 33.820312 387.15625 48.726562 Z M 387.15625 48.726562 " style=" stroke:none;fill-rule:nonzero;fill:rgb(35.686275%,19.607843%,7.058824%);fill-opacity:1;" />
<path d="M 116.195312 204.867188 L 387.15625 48.726562 C 399.246094 41.746094 412.753906 42.121094 423.699219 47.554688 L 366.097656 14.296875 L 366.03125 14.375 C 355.011719 8.734375 341.3125 8.246094 329.058594 15.320312 L 58.097656 171.460938 C 22.167969 192.207031 0.0234375 230.539062 0.00390625 272.027344 C 0.0234375 272.050781 0.0390625 272.066406 0.0390625 272.066406 L 58.097656 305.449219 C 58.113281 263.957031 80.257812 225.617188 116.195312 204.867188 Z M 116.195312 204.867188 " style=" stroke:none;fill-rule:nonzero;fill:rgb(26.666667%,14.509804%,5.098039%);fill-opacity:1;" />
<path d="M 296.160156 208.554688 L 296.164062 208.546875 L 286.222656 202.9375 L 286.214844 202.949219 C 283.308594 200.90625 279.324219 200.433594 275.808594 202.460938 L 220.296875 234.464844 C 215.796875 237.054688 213.027344 241.855469 213.027344 247.046875 L 213.027344 277.574219 C 213.027344 281.460938 215.230469 284.570312 218.242188 286.144531 L 227.804688 291.542969 L 227.808594 291.539062 C 230.605469 293.097656 234.15625 293.304688 237.332031 291.484375 L 292.832031 259.65625 C 297.347656 257.066406 300.132812 252.261719 300.132812 247.054688 L 300.132812 216.363281 C 300.132812 213.035156 298.515625 210.269531 296.160156 208.554688 Z M 296.160156 208.554688 " style=" stroke:none;fill-rule:nonzero;fill:rgb(86.27451%,65.490196%,0%);fill-opacity:1;" />
<path d="M 222.832031 252.558594 L 222.832031 283.085938 C 222.832031 290.527344 230.875 295.1875 237.332031 291.488281 L 292.832031 259.660156 C 297.347656 257.070312 300.132812 252.261719 300.132812 247.058594 L 300.132812 216.363281 C 300.132812 208.914062 292.066406 204.253906 285.613281 207.976562 L 230.101562 239.976562 C 225.601562 242.570312 222.832031 247.367188 222.832031 252.558594 Z M 222.832031 252.558594 " style=" stroke:none;fill-rule:nonzero;fill:rgb(100%,84.705882%,0%);fill-opacity:1;" />
<path d="M 128.769531 175.71875 C 118.070312 175.71875 109.402344 167.046875 109.402344 156.351562 L 109.402344 109.390625 C 109.402344 102.472656 113.09375 96.078125 119.085938 92.621094 L 275.011719 2.59375 C 281.003906 -0.863281 288.386719 -0.863281 294.378906 2.59375 C 300.371094 6.054688 304.0625 12.445312 304.0625 19.367188 L 304.0625 66.878906 C 304.0625 77.574219 295.390625 86.246094 284.695312 86.246094 C 274 86.246094 265.328125 77.574219 265.328125 66.878906 L 265.328125 52.910156 L 148.132812 120.570312 L 148.132812 156.355469 C 148.136719 167.050781 139.464844 175.71875 128.769531 175.71875 Z M 128.769531 175.71875 " style=" stroke:none;fill-rule:nonzero;fill:rgb(65.490196%,39.607843%,19.215686%);fill-opacity:1;" />
<path d="M 148.332031 122.320312 C 139.964844 122.320312 131.828125 117.980469 127.34375 110.210938 C 120.660156 98.632812 124.628906 83.828125 136.203125 77.144531 L 252.328125 10.101562 C 263.90625 3.414062 278.714844 7.382812 285.398438 18.960938 C 292.082031 30.539062 288.117188 45.34375 276.539062 52.027344 L 160.414062 119.074219 C 156.601562 121.273438 152.4375 122.320312 148.332031 122.320312 Z M 148.332031 122.320312 " style=" stroke:none;fill-rule:nonzero;fill:rgb(45.490196%,27.45098%,13.333333%);fill-opacity:1;" />
<path d="M 128.769531 175.71875 C 118.070312 175.71875 109.402344 167.046875 109.402344 156.351562 L 109.402344 109.390625 C 109.402344 102.472656 113.09375 96.078125 119.085938 92.621094 L 125.613281 88.847656 C 134.875 83.503906 146.71875 86.675781 152.070312 95.9375 C 156.753906 104.054688 154.898438 114.152344 148.136719 120.125 L 148.136719 156.351562 C 148.136719 167.050781 139.464844 175.71875 128.769531 175.71875 Z M 128.769531 175.71875 " style=" stroke:none;fill-rule:nonzero;fill:rgb(65.490196%,39.607843%,19.215686%);fill-opacity:1;" />
</g>
</svg>