<?xml version="1.0" encoding="iso-8859-1"?>
<!-- Generator: Adobe Illustrator 19.0.0, SVG Export Plug-In . SVG Version: 6.00 Build 0)  -->
<svg version="1.1" id="Layer_1" xmlns="http://www.w3.org/2000/svg" xmlns:xlink="http://www.w3.org/1999/xlink" x="0px" y="0px"
	 viewBox="0 0 512 512" style="enable-background:new 0 0 512 512;" xml:space="preserve">
<g style="enable-background:new    ;">
	<polygon style="fill:#FF6342;" points="341.334,65.903 341.334,159.95 256.277,209.379 170.666,159.952 170.666,65.905 
		256.277,16.476 	"/>
	<polygon style="fill:#FF3502;" points="341.334,65.903 341.334,159.95 256.277,209.379 256.277,115.332 	"/>
	<polygon style="fill:#FF5023;" points="256.277,115.332 256.277,209.379 170.666,159.952 170.666,65.905 	"/>
	<polygon style="fill:#A258CB;" points="341.334,352.048 341.334,446.095 256.277,495.524 170.666,446.097 170.666,352.05 
		256.277,302.621 	"/>
	<polygon style="fill:#7F33AD;" points="341.334,352.048 341.334,446.095 256.277,495.524 256.277,401.477 	"/>
	<polygon style="fill:#943EC7;" points="256.277,401.477 256.277,495.524 170.666,446.097 170.666,352.05 	"/>
	<polygon style="fill:#A258CB;" points="170.666,352.048 170.666,446.095 85.611,495.524 0,446.097 0,352.05 85.611,302.621 	"/>
	<polygon style="fill:#7F33AD;" points="170.666,352.048 170.666,446.095 85.611,495.524 85.611,401.477 	"/>
	<polygon style="fill:#943EC7;" points="85.611,401.477 85.611,495.524 0,446.097 0,352.05 	"/>
	<polygon style="fill:#A258CB;" points="512,352.048 512,446.095 426.944,495.524 341.334,446.097 341.334,352.05 426.944,302.621 	
		"/>
	<polygon style="fill:#7F33AD;" points="512,352.048 512,446.095 426.944,495.524 426.944,401.477 	"/>
	<polygon style="fill:#943EC7;" points="426.944,401.477 426.944,495.524 341.334,446.097 341.334,352.05 	"/>
	<polygon style="fill:#FFA834;" points="426.667,208.489 426.667,302.537 341.611,351.966 256.277,302.539 256.277,208.491 
		341.611,159.062 	"/>
	<polygon style="fill:#F18700;" points="426.667,208.489 426.667,302.537 341.611,351.966 341.611,257.918 	"/>
	<polygon style="fill:#FF9911;" points="341.611,257.918 341.611,351.966 256.277,302.539 256.277,208.491 	"/>
	<polygon style="fill:#FFA834;" points="256.277,208.489 256.277,302.537 170.944,351.966 85.334,302.539 85.334,208.491 
		170.944,159.062 	"/>
	<polygon style="fill:#F18700;" points="256.277,208.489 256.277,302.537 170.944,351.966 170.944,257.918 	"/>
	<polygon style="fill:#FF9911;" points="170.944,257.918 170.944,351.966 85.334,302.539 85.334,208.491 	"/>
</g>
<g>
</g>
<g>
</g>
<g>
</g>
<g>
</g>
<g>
</g>
<g>
</g>
<g>
</g>
<g>
</g>
<g>
</g>
<g>
</g>
<g>
</g>
<g>
</g>
<g>
</g>
<g>
</g>
<g>
</g>
</svg>
