<svg height="512pt" viewBox="-77 0 512 512.00202" width="512pt" xmlns="http://www.w3.org/2000/svg"><path d="m347.574219 74.46875.039062-.003906-16.914062-9.664063c-6.492188-3.75-14.492188-3.75-20.984375-.003906l-9.46875 5.464844-56.949219-32.878907v-12.238281c0-6.765625-3.433594-12.34375-8.367187-15.617187.066406.039062.140624.0625.207031.101562l-.6875-.398437c-.355469-.21875-.714844-.429688-1.085938-.625l-10.691406-6.175781c-5.59375-3.230469-12.480469-3.238282-18.082031-.027344l-181.058594 103.84375c-15.6875 9.058594-23.53125 24.90625-23.53125 40.753906v309.769531c0 15.847657 7.84375 31.699219 23.53125 40.753907 33.433594 19.304687 74.625 19.304687 108.0625 0l201.132812-115.453126c15.097657-8.667968 24.40625-24.746093 24.40625-42.148437v-249.140625c0-7.292969-4-13.175781-9.558593-16.3125zm0 0" fill="#33aeff"/><path d="m23.53125 187.753906c-15.6875-9.058594-23.53125-24.90625-23.53125-40.753906v309.769531c0 15.847657 7.84375 31.699219 23.53125 40.753907 33.433594 19.304687 74.625 19.304687 108.0625 0v-309.769532c-33.4375 19.300782-74.628906 19.300782-108.0625 0zm0 0" fill="#0d68be"/><path d="m345.070312 73.058594-14.371093-8.257813c-6.492188-3.75-14.492188-3.75-20.984375-.003906l-189.222656 109.210937c-24.601563 14.203126-54.914063 14.203126-79.519532 0-23.085937-13.328124-23.085937-46.648437 0-59.976562l180.378906-104.210938c4.121094-2.363281 9.671876-2.566406 13.785157-.191406l-12.46875-7.199218c-5.589844-3.230469-12.476563-3.238282-18.078125-.027344l-181.058594 103.84375c-31.371094 18.113281-31.371094 63.394531 0 81.507812 33.433594 19.300782 74.625 19.300782 108.0625 0l199.875-114.589844c4.101562-2.269531 9.546875-2.445312 13.601562-.105468zm0 0" fill="#a1eaff"/><path d="m120.492188 174.007812 179.753906-103.746093-69.929688-40.375c-4.117187-2.375-9.183594-2.382813-13.304687-.019531l-176.039063 102.214843c-8.535156 4.929688-13.902344 12.589844-16.128906 20.964844 2.222656 8.371094 7.59375 16.03125 16.128906 20.960937 24.601563 14.203126 54.917969 14.203126 79.519532 0zm0 0" fill="#e9e9e9"/><path d="m241.484375 74.125 43.996094 25.402344-59.699219 54.226562-47.214844 7.066406-43.621094-25.183593zm0 0" fill="#e84c3d"/><path d="m285.480469 99.527344v210.480468l-46.941407-7.492187-59.972656 69.21875v-210.914063zm0 0" fill="#b5292a"/></svg>