<?xml version="1.0" encoding="iso-8859-1"?>
<!-- Generator: Adobe Illustrator 19.0.0, SVG Export Plug-In . SVG Version: 6.00 Build 0)  -->
<svg version="1.1" id="Capa_1" xmlns="http://www.w3.org/2000/svg" xmlns:xlink="http://www.w3.org/1999/xlink" x="0px" y="0px"
	 viewBox="0 0 512.001 512.001" style="enable-background:new 0 0 512.001 512.001;" xml:space="preserve">
<path style="fill:#C40041;" d="M409.573,53.542c-2.596-1.964-5.303-3.625-8.101-5.012L329.583,6.902L329.58,6.91
	c-39.261-23.113-98.973,13.41-136.397,84.913c-39.032-29.508-102.315,7.028-141.348,81.608
	c-38.753,74.044-38.983,157.683-0.788,187.759l142.179,107.484L268.264,512l0.001,0.001l141.308-269.993
	C448.606,167.428,448.606,83.051,409.573,53.542z"/>
<path style="fill:#F43834;" d="M409.573,53.542c-39.032-29.508-102.317,7.029-141.35,81.608
	c-39.032-29.508-102.316,7.028-141.348,81.608c-38.753,74.044-38.983,157.683-0.789,187.759l142.18,107.484l141.308-269.993
	C448.606,167.429,448.606,83.05,409.573,53.542z"/>
<polygon style="fill:#9FACBC;" points="489.417,244.066 461.852,228.115 434.414,243.957 434.414,202.484 406.849,186.533 
	356.832,215.411 356.832,288.749 301.828,320.505 301.829,387.193 329.393,403.144 356.832,387.303 356.832,387.303 
	356.832,428.775 384.396,444.726 434.414,415.849 434.414,342.511 489.417,310.755 "/>
<polygon style="fill:#D0D4D6;" points="489.417,310.755 489.416,244.066 434.414,275.822 434.414,202.484 384.396,231.362 
	384.396,304.699 329.393,336.456 329.393,403.145 384.396,371.389 384.396,444.726 434.414,415.849 434.414,342.511 "/>
<g>
	<polygon style="fill:#C8CED6;" points="434.414,202.484 406.849,186.533 356.831,215.411 384.396,231.362 	"/>
	<polygon style="fill:#C8CED6;" points="384.396,304.699 356.831,288.748 301.828,320.505 329.393,336.456 	"/>
</g>
<g>
</g>
<g>
</g>
<g>
</g>
<g>
</g>
<g>
</g>
<g>
</g>
<g>
</g>
<g>
</g>
<g>
</g>
<g>
</g>
<g>
</g>
<g>
</g>
<g>
</g>
<g>
</g>
<g>
</g>
</svg>
