<?xml version="1.0" encoding="iso-8859-1"?>
<!-- Generator: Adobe Illustrator 19.0.0, SVG Export Plug-In . SVG Version: 6.00 Build 0)  -->
<svg xmlns="http://www.w3.org/2000/svg" xmlns:xlink="http://www.w3.org/1999/xlink" version="1.1" id="Capa_1" x="0px" y="0px" viewBox="0 0 512 512" style="enable-background:new 0 0 512 512;" xml:space="preserve" width="512" height="512">
<g>
	<path style="fill:#C3DDFF;" d="M483.376,362.827V149.173c0-15.129-8.071-29.109-21.173-36.674L277.174,5.673   c-13.102-7.565-29.245-7.565-42.347,0L49.798,112.5c-13.102,7.565-21.173,21.544-21.173,36.674v213.653   c0,15.129,8.071,29.109,21.173,36.674l185.029,106.827c13.102,7.565,29.245,7.565,42.347,0L462.202,399.5   C475.305,391.936,483.376,377.956,483.376,362.827z"/>
	<path style="fill:#A4CCFF;" d="M462.203,399.5c6.575-3.796,11.879-9.21,15.535-15.572L256,255.908V512   c7.311,0,14.622-1.891,21.173-5.673L462.203,399.5z"/>
	<path style="fill:#A4CCFF;" d="M234.827,5.673L49.797,112.5c-13.102,7.565-21.173,21.544-21.173,36.673v213.653   c0,15.129,8.072,29.109,21.173,36.673l185.029,106.827C241.378,510.109,248.689,512,256,512V0   C248.689,0,241.378,1.891,234.827,5.673z"/>
	<path style="fill:#DBEAFF;" d="M256,256l221.703-128c-3.655-6.332-8.949-11.718-15.5-15.5L277.173,5.673   c-13.102-7.565-29.244-7.565-42.347,0L49.797,112.5c-6.551,3.782-11.845,9.168-15.5,15.5L256,256z"/>
	<path style="fill:#C3DDFF;" d="M234.827,5.673L49.797,112.5c-6.551,3.782-11.845,9.168-15.5,15.5L256,256V0   C248.689,0,241.378,1.891,234.827,5.673z"/>
	<path style="fill:#8BB3EA;" d="M49.797,399.5c-6.575-3.796-11.883-9.206-15.54-15.567L256,255.908V512   c-7.311,0-14.622-1.891-21.173-5.673L49.797,399.5z"/>
	<path style="fill:#DBEAFF;" d="M59.879,133.234c-3.936-2.282-8.992-0.936-11.282,3.024c-2.282,3.952-0.927,9,3.024,11.282   l200.25,115.613l8.258-14.306L59.879,133.234z"/>
	<path style="fill:#FFFFFF;" d="M256,495.484c4.565,0,8.258-3.694,8.258-8.258v-226.46L460.379,147.54   c3.952-2.282,5.306-7.331,3.024-11.282c-2.282-3.944-7.339-5.306-11.282-3.024l-200.25,115.613   c-2.556,1.476-4.129,4.202-4.129,7.153v231.226C247.742,491.79,251.436,495.484,256,495.484z"/>
</g>















</svg>
