<?xml version="1.0" encoding="iso-8859-1"?>
<!-- Generator: Adobe Illustrator 19.0.0, SVG Export Plug-In . SVG Version: 6.00 Build 0)  -->
<svg version="1.1" id="Layer_1" xmlns="http://www.w3.org/2000/svg" xmlns:xlink="http://www.w3.org/1999/xlink" x="0px" y="0px"
	 viewBox="0 0 512 512" style="enable-background:new 0 0 512 512;" xml:space="preserve">
<path style="fill:#C6C5CB;" d="M511.978,182.063c0.47-24.259-15.331-48.628-47.391-67.139c-62.926-36.331-164.617-36.331-227.134,0
	c-31.158,18.107-46.7,41.82-46.668,65.552c0-0.076-0.004-0.153-0.004-0.229l-0.083,29.214c-0.047,16.75,7.677,33.516,23.141,48.335
	l-42.754,24.846c2.915-1.694,6.952-1.456,11.407,1.117c8.852,5.111,16.006,17.504,15.977,27.677
	c-0.015,5.055-1.798,8.612-4.677,10.284l63.138-36.691c62.983,26.677,151.706,23.57,208.314-9.328
	c31.058-18.049,46.604-41.668,46.671-65.324l0.083-29.214C511.999,181.465,511.984,181.764,511.978,182.063z"/>
<path style="fill:#D2E7F8;" d="M436.246,131.396c47.168,27.232,47.42,71.388,0.555,98.624s-123.097,27.234-170.265,0.001
	c-47.173-27.235-47.42-71.388-0.555-98.624S389.074,104.16,436.246,131.396z"/>
<g>
	<path style="fill:#ACABB1;" d="M470.724,181.047l-0.083,29.214c0.05-17.803-11.7-35.634-35.227-49.217
		c-46.752-26.992-122.311-26.99-168.759,0.003c-23.076,13.41-34.626,30.959-34.676,48.535l0.083-29.214
		c0.05-17.575,11.601-35.125,34.676-48.535c46.448-26.993,122.007-26.995,168.759-0.003
		C459.025,145.413,470.775,163.245,470.724,181.047z"/>
	<path style="fill:#ACABB1;" d="M511.999,181.165l-0.083,29.214c-0.067,23.656-15.614,47.275-46.671,65.324
		c-62.518,36.332-164.209,36.332-227.134,0.002c-31.665-18.282-47.48-42.28-47.412-66.241l0.083-29.214
		c-0.068,23.962,15.747,47.959,47.412,66.241c62.926,36.33,164.616,36.329,227.134-0.002
		C496.386,228.44,511.932,204.821,511.999,181.165z"/>
</g>
<path style="fill:#C6C5CB;" d="M171.087,282.644l63.557-36.936c2.915-1.694,6.952-1.456,11.407,1.117l-63.557,36.936
	C178.037,281.188,174.001,280.95,171.087,282.644z"/>
<path style="fill:#ACABB1;" d="M257.35,284.786l-63.557,36.935c2.878-1.673,4.662-5.229,4.677-10.284
	c0.029-10.172-7.124-22.565-15.977-27.677l63.557-36.936c8.852,5.111,16.006,17.504,15.977,27.677
	C262.013,279.557,260.228,283.114,257.35,284.786z"/>
<path style="fill:#C6C5CB;" d="M182.493,283.761c8.852,5.111,16.006,17.504,15.977,27.677c-0.029,10.175-7.229,14.279-16.081,9.167
	c-8.856-5.113-16.009-17.502-15.98-27.678C166.438,282.754,173.638,278.648,182.493,283.761z"/>
<path style="fill:#2E2E30;" d="M182.292,275.184c-6.482-3.742-12.354-4.089-16.595-1.624L6.805,365.898
	c0.014-0.008,0.028-0.014,0.042-0.022c-4.211,2.423-6.824,7.605-6.846,14.981c-0.042,14.803,10.369,32.831,23.248,40.267
	c6.665,3.848,12.682,4.099,16.946,1.403c-0.117,0.074-0.231,0.154-0.35,0.223l158.892-92.338c4.187-2.433,6.783-7.607,6.803-14.961
	C205.582,300.652,195.175,282.622,182.292,275.184z"/>
<path style="fill:#3E3D43;" d="M6.805,365.898l158.892-92.338c4.241-2.465,10.115-2.118,16.595,1.624L23.4,367.522
	C16.919,363.78,11.046,363.433,6.805,365.898z"/>
<path style="fill:#1D1D1F;" d="M198.737,330.412L39.845,422.75c4.187-2.433,6.783-7.607,6.803-14.961
	c0.042-14.799-10.366-32.829-23.248-40.267l158.892-92.338c12.883,7.438,23.29,25.467,23.248,40.267
	C205.519,322.805,202.924,327.979,198.737,330.412z"/>
<path style="fill:#2E2E30;" d="M23.4,367.522c12.883,7.438,23.29,25.468,23.248,40.267c-0.042,14.803-10.517,20.773-23.4,13.335
	C10.369,413.688-0.042,395.66,0,380.857C0.042,366.058,10.52,360.086,23.4,367.522z"/>
<path style="fill:#C6C5CB;" d="M464.587,114.925c62.926,36.331,63.258,95.233,0.741,131.564
	c-62.518,36.332-164.209,36.332-227.134,0.002c-62.926-36.33-63.258-95.234-0.741-131.565
	C299.97,78.595,401.662,78.595,464.587,114.925z M267.287,229.583c46.756,26.994,122.311,26.994,168.76,0.001
	c46.448-26.993,46.206-70.759-0.551-97.753c-46.752-26.992-122.311-26.99-168.759,0.003
	C220.289,158.826,220.536,202.591,267.287,229.583"/>
<g>
</g>
<g>
</g>
<g>
</g>
<g>
</g>
<g>
</g>
<g>
</g>
<g>
</g>
<g>
</g>
<g>
</g>
<g>
</g>
<g>
</g>
<g>
</g>
<g>
</g>
<g>
</g>
<g>
</g>
</svg>
