<?xml version="1.0" encoding="iso-8859-1"?>
<!-- Generator: Adobe Illustrator 19.0.0, SVG Export Plug-In . SVG Version: 6.00 Build 0)  -->
<svg version="1.1" id="Capa_1" xmlns="http://www.w3.org/2000/svg" xmlns:xlink="http://www.w3.org/1999/xlink" x="0px" y="0px"
	 viewBox="0 0 512 512" style="enable-background:new 0 0 512 512;" xml:space="preserve">
<path style="fill:#8392A5;" d="M295.527,112.28L0,282.902l0,0v12.808l216.458,124.979L512,249.582V237.26L295.527,112.28z
	 M295.819,130.986l183.563,106.083l-262.86,151.885L32.505,283.022L295.819,130.986z"/>
<polygon style="fill:#D1D1D1;" points="0,282.902 216.473,407.883 512,237.261 295.527,112.28 "/>
<polygon style="fill:#C8CED6;" points="32.505,283.022 216.522,388.953 479.382,237.068 295.819,130.986 "/>
<polygon style="fill:#A4C639;" points="433.832,275.881 393.466,257.478 278.325,186.978 207.778,226.668 172.334,196.091 
	303.083,122.814 491.943,236.614 "/>
<polygon style="fill:#33AEFF;" points="415.067,282.902 360.588,242.667 223.18,327.729 272.062,366.758 "/>
<polygon style="fill:#00AC65;" points="247.999,303.805 164.157,255.705 74.877,312.718 153.176,366.758 "/>
<polygon style="fill:#A4C639;" points="265.553,366.758 200.945,331.673 161.438,366.758 219.952,402.472 "/>
<polygon style="fill:#FFD2A6;" points="419.071,285.262 430.155,266.5 299.887,189.532 351.328,159.679 340.389,140.831 
	214.176,214.079 166.676,186.655 155.78,205.527 192.44,226.693 64.228,301.1 75.166,319.948 278.276,202.074 340.336,238.742 
	147.733,349.814 158.62,368.691 207.923,340.259 266.79,372.802 277.334,353.731 229.968,327.546 361.882,251.472 "/>
<path style="fill:#E8EDEF;" d="M295.527,112.28L0,282.902l216.473,124.981L512,237.26L295.527,112.28z M32.505,283.022
	l263.314-152.036l183.563,106.082l-262.86,151.885L32.505,283.022z"/>
<polygon style="fill:#C8CED6;" points="512,237.26 512,249.582 216.458,420.689 216.458,407.883 "/>
<path style="fill:#C40041;" d="M302.798,133.662c0-16.027-5.546-27.119-14.214-31.468l0.001-0.008l-13.456-7.782l-0.009,0.002
	c-6.814-4.416-15.901-4.271-25.885,1.493c-21.135,12.202-38.268,44.939-38.268,73.119c0,10.021,2.175,18.104,5.918,23.828
	l-0.001,0.001l0.036,0.052c0.263,0.399,32.315,46.71,32.315,46.71l15.295,8.833l0,0l31.508-81.925
	c0.278-0.697,0.545-1.397,0.807-2.1l0.036-0.093l-0.001,0.001C300.623,154.278,302.798,143.683,302.798,133.662z"/>
<path style="fill:#F43834;" d="M296.881,164.322L296.881,164.322c3.742-10.045,5.917-20.639,5.917-30.661
	c0-28.18-17.133-41.133-38.269-28.93c-21.135,12.202-38.269,44.939-38.269,73.119c0,10.021,2.175,18.104,5.918,23.827h-0.001
	l0.036,0.052c0.262,0.4,32.315,46.71,32.315,46.71l31.508-81.925c0.278-0.697,0.545-1.397,0.807-2.1L296.881,164.322z"/>
<path style="fill:#FFFFFF;" d="M286.813,142.891c0,16.409-9.977,35.471-22.283,42.576s-22.283-0.437-22.283-16.846
	s9.977-35.47,22.283-42.576C276.836,118.94,286.813,126.482,286.813,142.891z"/>
<g>
</g>
<g>
</g>
<g>
</g>
<g>
</g>
<g>
</g>
<g>
</g>
<g>
</g>
<g>
</g>
<g>
</g>
<g>
</g>
<g>
</g>
<g>
</g>
<g>
</g>
<g>
</g>
<g>
</g>
</svg>
