<?xml version="1.0" encoding="iso-8859-1"?>
<!-- Generator: Adobe Illustrator 16.0.0, SVG Export Plug-In . SVG Version: 6.00 Build 0)  -->
<!DOCTYPE svg PUBLIC "-//W3C//DTD SVG 1.1//EN" "http://www.w3.org/Graphics/SVG/1.1/DTD/svg11.dtd">
<svg version="1.1" id="Capa_1" xmlns="http://www.w3.org/2000/svg" xmlns:xlink="http://www.w3.org/1999/xlink" x="0px" y="0px"
	 width="325.357px" height="325.357px" viewBox="0 0 325.357 325.357" style="enable-background:new 0 0 325.357 325.357;"
	 xml:space="preserve">
<g>
	<g>
		<path d="M0.583,174.501c-1.624,14.09,0.132,26.781,5.408,39.918c5.313,13.235,12.143,25.176,13.812,39.618
			c0.111,0.979,0.404,1.838,0.769,2.636c-0.031,0.232-0.09,0.439-0.106,0.678c-1.432,26.766,18.952,34.554,34.952,12.961
			c8.003-10.791,7.037-25.601,6.444-38.173c-0.425-9.01-2.954-28.978,11.102-30.354c12.562-1.232,16.614,12.92,21.564,21.033
			c14.838,24.312,39.287,1.885,48.783-13.902c5.45-9.067,12.836-0.741,12.836,6.829c0,6.97-0.963,14.002-1.654,20.931
			c-1.473,14.799-3.532,30.121-1.489,44.961c2.322,16.887,17.593,35.429,35.612,21.282c19.03-14.938,5.893-52.895,2.352-71.96
			c-2.895-15.581-5.691-51.968,20.525-30.303c10.543,8.71,22.364,7.374,34.135,2.195c13.354-5.882,11.531,16.125,13.074,21.489
			c1.191,4.143,6.934,8.472,10.688,9.507c9.989,2.74,12.635,6.059,20.07,13.521c7.151,7.167,1.59,19.413,7.156,27.921
			c4.49,6.871,24.777,9.149,25.425,1.289c2.604-31.603,2.449-37.298,1.988-68.932l1.326-31.151V17.422H0.583V174.501z
			 M305.002,268.53c4.174-14.018,2.646-28.573,3.122-42.994c0.229-6.819,10.833-6.84,10.605,0
			c-0.519,15.385,0.947,30.856-3.506,45.821C313.276,277.893,303.045,275.106,305.002,268.53z M171.815,289.393
			c8.492-7.431,9.817-17.983,5.137-28.039c-2.869-6.157,6.271-11.548,9.155-5.349c6.606,14.183,5.457,30.173-6.789,40.891
			C174.192,301.375,166.658,293.903,171.815,289.393z M109.256,216.324c4.898-2.542,8.606-6.302,12.184-10.444
			c1.893-2.189,5.567-1.932,7.498,0c2.151,2.154,1.887,5.313,0,7.498c-4.125,4.77-8.681,9.171-14.328,12.091
			C108.549,228.617,103.185,219.473,109.256,216.324z M35.685,264.046c5.217-3.479,7.858-8.409,7.979-14.648
			c0.132-6.83,10.737-6.841,10.605,0c-0.191,10.107-4.852,18.222-13.23,23.793C35.323,276.996,30.021,267.806,35.685,264.046z"/>
	</g>
</g>
<g>
</g>
<g>
</g>
<g>
</g>
<g>
</g>
<g>
</g>
<g>
</g>
<g>
</g>
<g>
</g>
<g>
</g>
<g>
</g>
<g>
</g>
<g>
</g>
<g>
</g>
<g>
</g>
<g>
</g>
</svg>
