<svg height="512pt" viewBox="-87 0 512 512.00032" width="512pt" xmlns="http://www.w3.org/2000/svg"><path d="m330.699219 87.785156-45.15625-53.589844c-1.46875-1.742187-3.132813-3.117187-4.9375-4.167968l.007812-.015625-47.363281-27.652344c-6.253906-3.632813-14.3125-3.09375-22.757812 1.78125l-175.777344 101.484375c-19.171875 11.070312-34.714844 40.765625-34.714844 66.328125v281.972656c0 14.347657 4.898438 24.339844 12.582031 28.394531l46.148438 26.964844c.007812.007813.019531.011719.027343.015625l.613282.359375v-.003906c6.085937 3.511719 14.019531 3.191406 22.699218-1.820312l220.933594-127.558594c19.171875-11.066406 34.714844-40.765625 34.714844-66.324219v-202.3125c0-10.074219-2.464844-18.449219-7.019531-23.855469zm0 0" fill="#0d68be"/><path d="m303.003906 380.277344-220.933594 127.558594c-19.171874 11.066406-34.714843-.683594-34.714843-26.246094v-281.96875c0-25.566406 15.542969-55.257813 34.714843-66.328125l175.777344-101.484375c10.882813-6.28125 21.132813-5.398438 27.695313 2.386718l45.15625 53.589844c4.554687 5.40625 7.019531 13.78125 7.019531 23.855469v202.3125c0 25.558594-15.542969 55.257813-34.714844 66.324219zm0 0" fill="#33aeff"/><path d="m97.054688 124.546875v118.277344c0 15.839843 17.144531 25.738281 30.859374 17.820312l101.25-58.457031c11.601563-6.699219 18.746094-19.078125 18.746094-32.472656v-132.625zm0 0" fill="#e9e9e9"/><path d="m247.910156 37.089844-47.242187-27.277344-151.167969 87.277344 47.554688 27.457031zm0 0" fill="#abb7b7"/><path d="m123.5 142.894531v85.0625l51.296875-29.617187v-85.0625zm0 0" fill="#abb7b7"/><path d="m114.882812 319.964844 156.160157-90.160156c7.730469-4.460938 17.390625 1.117187 17.390625 10.042968v89.839844c0 12.738281-6.796875 24.511719-17.828125 30.878906l-156.160157 90.160156c-7.730468 4.460938-17.390624-1.117187-17.390624-10.039062v-89.84375c0-12.738281 6.796874-24.507812 17.828124-30.878906zm0 0" fill="#fff"/><g fill="#abb7b7"><path d="m258.558594 287.261719-132.042969 76.683593c-4.722656 2.726563-8.550781-.167968-8.550781-6.464843 0-6.300781 3.828125-13.613281 8.550781-16.339844l132.042969-76.683594c4.722656-2.726562 8.554687.167969 8.554687 6.464844s-3.832031 13.613281-8.554687 16.339844zm0 0"/><path d="m258.558594 338.03125-132.042969 76.683594c-4.722656 2.726562-8.550781-.167969-8.550781-6.464844s3.828125-13.613281 8.550781-16.339844l132.042969-76.683594c4.722656-2.726562 8.554687.167969 8.554687 6.464844s-3.832031 13.613282-8.554687 16.339844zm0 0"/></g></svg>